<svg width="23" height="23" viewBox="0 0 23 23" fill="none" xmlns="http://www.w3.org/2000/svg">
<g clip-path="url(#clip0_18077_124145)">
<path fill-rule="evenodd" clip-rule="evenodd" d="M9.54584 8.87926C7.39643 10.1202 10.676 16.2684 13.028 14.9104C13.4456 15.6339 14.791 17.9641 15.2087 18.6876C14.2164 19.2605 13.3763 19.6217 12.2259 18.964C9.03148 17.1379 5.51514 11.05 5.61538 7.41863C5.65012 6.15738 6.3932 5.66322 7.36518 5.10205C7.78286 5.82549 9.12816 8.15582 9.54584 8.87926Z" fill="#71747A"/>
<path fill-rule="evenodd" clip-rule="evenodd" d="M10.4462 8.77662C10.214 8.91071 9.91513 8.83067 9.78103 8.59841L7.72519 5.03756C7.59108 4.80527 7.67111 4.50642 7.90338 4.37232L8.98388 3.74849C9.21614 3.61438 9.51506 3.69448 9.64915 3.92674L11.705 7.48756C11.8391 7.71979 11.759 8.01865 11.5268 8.15275L10.4462 8.77662Z" fill="#71747A"/>
<path fill-rule="evenodd" clip-rule="evenodd" d="M16.0634 18.5044C15.8312 18.6385 15.5323 18.5584 15.3982 18.3261L13.3424 14.7653C13.2083 14.533 13.2883 14.2341 13.5206 14.1001L14.6011 13.4763C14.8333 13.3422 15.1322 13.4223 15.2663 13.6545L17.3222 17.2153C17.4563 17.4476 17.3762 17.7465 17.144 17.8805L16.0634 18.5044Z" fill="#71747A"/>
<path d="M11.5001 0L11.5003 0.00267837C14.6771 0.00272707 17.552 1.28918 19.6313 3.36874C21.7107 5.44818 22.9972 8.32296 22.9973 11.4998H22.9999V11.5003H22.9973C22.9972 14.6771 21.7108 17.552 19.6312 19.6313C17.5517 21.7107 14.677 22.9972 11.5002 22.9973V22.9999H11.4996V22.9973C8.32284 22.9972 5.44794 21.7108 3.36862 19.6312C1.28918 17.5517 0.0027573 14.677 0.00267837 11.5002H0V11.4996H0.00267837C0.00272707 8.32284 1.28918 5.44794 3.36874 3.36862C5.44818 1.28918 8.32296 0.0027573 11.4998 0.00267837L11.5001 0ZM11.5003 1.37167V1.37434H11.4998V1.37167C8.70607 1.37174 6.17458 2.50635 4.34072 4.34033C2.50659 6.17443 1.37194 8.70616 1.37194 11.4998H1.37461V11.5003H1.37194C1.37201 14.294 2.50662 16.8255 4.3406 18.6593C6.1747 20.4935 8.70643 21.6281 11.5 21.6281V21.6254H11.5006V21.6281C14.2943 21.628 16.8257 20.4934 18.6596 18.6595C20.4937 16.8254 21.6284 14.2936 21.6284 11.5H21.6257V11.4995H21.6284C21.6283 8.7058 20.4937 6.17431 18.6597 4.34045C16.8256 2.50631 14.2939 1.37167 11.5003 1.37167Z" fill="#71747A"/>
</g>
<defs>
<clipPath id="clip0_18077_124145">
<rect width="23" height="23" fill="white"/>
</clipPath>
</defs>
</svg>
